<svg width="17" height="16" viewBox="0 0 17 16" fill="none" xmlns="http://www.w3.org/2000/svg">
<path d="M14.5771 14.6771C6.85312 13.7578 1.48007 8.74916 1.00204 2.10075C0.966815 1.60844 1.39251 1.19895 1.93093 1.17595L5.80246 1.00111C6.01337 0.991626 6.22219 1.04304 6.39937 1.14807C6.57655 1.2531 6.71311 1.40643 6.78972 1.58636L7.48714 3.22246C7.57502 3.42888 7.57852 3.65737 7.497 3.86596C7.41547 4.07455 7.25439 4.24925 7.04333 4.35798L4.80413 5.51191C4.66977 5.58119 4.55462 5.67778 4.46758 5.79422C4.38054 5.91067 4.32395 6.04385 4.30216 6.18348C4.28037 6.32311 4.29398 6.46545 4.34193 6.59951C4.38988 6.73356 4.47089 6.85574 4.57871 6.95662L9.37209 11.4361C9.47928 11.5362 9.61005 11.6125 9.75441 11.6594C9.89877 11.7062 10.0529 11.7223 10.2051 11.7064C10.3573 11.6905 10.5035 11.6431 10.6326 11.5677C10.7617 11.4923 10.8703 11.391 10.9501 11.2714L12.349 9.17521C12.4717 8.99157 12.6609 8.85307 12.8838 8.78381C13.1066 8.71454 13.349 8.71888 13.5687 8.79609L15.354 9.42182C15.5583 9.49345 15.7315 9.62401 15.8473 9.7937C15.9632 9.9634 16.0154 10.163 15.9961 10.3623L15.6569 13.8645C15.6471 13.9837 15.611 14.0998 15.5508 14.2058C15.4906 14.3118 15.4076 14.4057 15.3067 14.4816C15.2058 14.5575 15.0891 14.6139 14.9637 14.6475C14.8384 14.6811 14.7068 14.6912 14.5771 14.6771Z" fill="white" stroke="white" stroke-linecap="round" stroke-linejoin="round"/>
</svg>
