<svg width="128" height="128" viewBox="0 0 128 128" fill="none" xmlns="http://www.w3.org/2000/svg">
<path d="M63.5996 118.8C35.6996 118.8 5.59961 101.3 5.59961 62.9C5.59961 24.5 35.6996 7 63.5996 7C79.0996 7 93.3996 12.1 104 21.4C115.5 31.6 121.6 46 121.6 62.9C121.6 79.8 115.5 94.1 104 104.3C93.3996 113.6 78.9996 118.8 63.5996 118.8Z" fill="url(#paint0_radial_491_1478)"/>
<path d="M63.5996 118.8C35.6996 118.8 5.59961 101.3 5.59961 62.9C5.59961 24.5 35.6996 7 63.5996 7C79.0996 7 93.3996 12.1 104 21.4C115.5 31.6 121.6 46 121.6 62.9C121.6 79.8 115.5 94.1 104 104.3C93.3996 113.6 78.9996 118.8 63.5996 118.8Z" fill="url(#paint1_linear_491_1478)"/>
<path d="M111.49 29.6699C116.82 38.2699 119.6 48.5099 119.6 59.8999C119.6 76.7999 113.5 91.0999 102 101.3C91.3999 110.6 76.9999 115.8 61.5999 115.8C43.5399 115.8 24.5599 108.45 13.4199 92.8599C24.1799 110.52 44.4099 118.8 63.5999 118.8C78.9999 118.8 93.3999 113.6 104 104.3C115.5 94.0999 121.6 79.7999 121.6 62.8999C121.6 50.1599 118.13 38.8399 111.49 29.6699Z" fill="#EB8F00"/>
<path d="M44.0391 40.9399C39.8491 40.9399 36.0391 44.4799 36.0391 50.3599C36.0391 56.2399 39.8491 59.7799 44.0391 59.7799C48.2291 59.7799 52.0391 56.2399 52.0391 50.3599C52.0391 44.4799 48.2391 40.9399 44.0391 40.9399Z" fill="#422B0D"/>
<path d="M43.6497 44.8702C42.6197 44.1502 41.0697 44.3802 40.0697 45.8202C39.0697 47.2702 39.3997 48.7902 40.4297 49.5102C41.4597 50.2302 43.0097 50.0002 44.0097 48.5602C45.0097 47.1202 44.6897 45.5902 43.6497 44.8702Z" fill="#896024"/>
<path d="M82.4004 40.9399C78.2104 40.9399 74.4004 44.4799 74.4004 50.3599C74.4004 56.2399 78.2104 59.7799 82.4004 59.7799C86.5904 59.7799 90.4004 56.2399 90.4004 50.3599C90.4004 44.4799 86.5904 40.9399 82.4004 40.9399Z" fill="#422B0D"/>
<path d="M82.009 44.8702C80.979 44.1502 79.429 44.3802 78.429 45.8202C77.429 47.2702 77.759 48.7902 78.789 49.5102C79.819 50.2302 81.369 50.0002 82.369 48.5602C83.379 47.1102 83.039 45.5902 82.009 44.8702Z" fill="#896024"/>
<path d="M96.3199 81.8599C94.0999 78.6799 88.3199 81.9299 88.3199 81.9299C88.3199 81.9299 91.3199 79.3199 93.8199 76.9299C95.4199 75.3999 96.8199 72.1399 95.5099 69.9299C94.1999 67.7199 90.3899 67.8599 88.5199 69.0099L81.1899 73.5099C81.1899 73.5099 83.9399 72.3099 84.7699 67.5899C84.8943 67.1362 84.928 66.6624 84.8691 66.1956C84.8102 65.7289 84.66 65.2783 84.4269 64.8697C84.1937 64.461 83.8824 64.1023 83.5106 63.8141C83.1387 63.5259 82.7137 63.3138 82.2599 63.1899C81.8999 63.0899 81.5299 63.0499 81.1599 63.0699C79.4299 63.2199 77.7799 63.8599 76.3899 64.9099C71.0899 68.6699 56.9399 78.2599 53.7699 78.0099C52.5399 77.9099 54.1199 74.1199 56.3999 71.9399C58.6799 69.7599 61.2499 64.7399 59.7999 61.2899C58.9499 59.2899 55.5399 57.8499 54.3099 59.7799C53.3799 61.1999 49.7999 65.7999 46.2399 69.2599C42.6799 72.7299 36.8199 80.4799 36.3099 81.2399C32.5799 86.7599 26.0599 99.2999 33.3399 110.84C39.7799 121.06 54.4799 121.54 62.0099 118.84C76.3999 113.74 89.6499 103.94 89.8999 103.74C92.5199 101.66 94.8999 98.6099 93.8199 95.8299C92.4899 92.3899 88.0799 94.4299 88.0799 94.4299C90.6299 92.8799 92.9199 90.9299 94.8499 88.6499C96.6799 86.2899 97.8099 84.0099 96.3199 81.8599Z" fill="url(#paint2_radial_491_1478)"/>
<path d="M96.0308 89.5598C97.2108 88.0398 99.9708 84.4898 97.5508 80.9998C96.6808 79.7698 95.4708 78.9998 94.0608 78.7598C96.4308 76.7898 98.9708 72.1898 96.2608 68.4098C95.2508 66.9998 93.3208 65.8998 90.2508 66.6098C88.0408 67.1198 86.0608 68.7498 86.0608 68.7498C86.1308 68.4798 87.8708 63.5698 81.8608 62.3498C79.4408 61.8598 76.6908 63.4598 75.1108 64.6498C65.9808 71.1298 54.9808 77.0498 55.3808 76.1998C56.8008 73.3798 59.2008 71.4198 60.5008 68.8498C61.9308 66.0098 61.7308 63.8398 61.3408 61.9798C60.7008 58.9798 57.9908 57.0398 55.2508 57.8898C52.8408 58.6398 52.0808 61.7198 47.7608 66.3898C40.7608 73.9498 30.3008 80.0198 30.3008 95.9598C30.3008 95.9598 32.0108 86.7098 36.3108 81.2198C40.3608 76.0598 46.2808 71.0898 49.9608 67.0298C53.4608 63.1798 53.4708 61.8698 54.6308 60.8898C56.6508 59.1898 59.7508 60.3798 59.4408 64.0798C59.0808 68.5298 57.2108 70.0298 55.1808 72.5698C53.9308 74.1398 52.6008 75.9898 52.0408 77.3098C51.6808 78.1498 52.3708 79.0498 53.2808 78.9298C59.4108 78.1198 73.6508 68.3798 77.2808 66.0898C78.4228 65.2222 79.7834 64.689 81.2108 64.5498C83.9508 64.1598 83.8108 67.9998 83.8108 67.9998C83.0408 71.1498 82.5508 71.1498 79.4108 73.7898C77.1808 75.6598 69.2908 81.3998 64.1708 83.9798C64.1708 83.9798 64.2608 85.1498 66.6308 84.4798C69.0008 83.8098 78.3408 77.9398 83.3708 73.9098C83.3708 73.9098 89.8908 68.3398 92.6708 69.1198C95.4908 69.9198 95.2408 71.8798 94.3508 73.7398C93.4708 75.5998 91.1608 77.8398 87.5008 80.6298C80.9208 85.6298 70.7308 92.4498 70.7308 92.4498C70.7308 92.4498 70.9408 93.4498 72.9208 92.8798C76.9508 91.7098 89.5308 82.3898 89.5308 82.3898C90.5108 81.6298 93.7908 80.5798 95.0708 82.7298C95.7608 83.7398 95.6008 85.3898 93.1808 88.2498C90.3008 91.6798 81.5108 97.6598 73.8708 102C73.8708 102 74.4508 102.98 76.5608 102.26C78.6708 101.54 87.3908 96.2298 88.7708 95.7698C90.1508 95.3098 91.5308 94.8698 92.4508 96.4998C93.5408 98.7498 92.0808 100.53 89.1908 102.83C89.0708 102.92 75.3108 113.68 61.0008 118.52C53.4408 121.08 44.9908 119.76 35.3008 113.43C41.1808 120.53 54.0208 123.7 62.7308 120.52C77.3808 115.16 90.9408 105.27 91.0508 105.18C93.1508 103.51 97.5208 100.05 95.1108 95.0998C94.4808 93.9898 93.6408 93.2998 92.7208 92.9098C93.9128 91.8844 95.0198 90.764 96.0308 89.5598Z" fill="#EB8F00"/>
<defs>
<radialGradient id="paint0_radial_491_1478" cx="0" cy="0" r="1" gradientUnits="userSpaceOnUse" gradientTransform="translate(63.5996 62.901) scale(56.96 56.96)">
<stop offset="0.5" stop-color="#FDE030"/>
<stop offset="0.919" stop-color="#F7C02B"/>
<stop offset="1" stop-color="#F4A223"/>
</radialGradient>
<linearGradient id="paint1_linear_491_1478" x1="63.5996" y1="118.801" x2="63.5996" y2="7" gradientUnits="userSpaceOnUse">
<stop offset="0.158" stop-color="#F4A223"/>
<stop offset="0.333" stop-color="#F7C02B"/>
<stop offset="0.807" stop-color="#FDE030" stop-opacity="0"/>
</linearGradient>
<radialGradient id="paint2_radial_491_1478" cx="0" cy="0" r="1" gradientUnits="userSpaceOnUse" gradientTransform="translate(64.5259 76.3759) scale(65.331 65.331)">
<stop offset="0.27" stop-color="#FFF176"/>
<stop offset="1" stop-color="#FFC400"/>
</radialGradient>
</defs>
</svg>
