<svg width="24" height="24" viewBox="0 0 24 24" fill="none" xmlns="http://www.w3.org/2000/svg">
<path d="M23.5 12C23.5 13.3554 23.2655 14.6561 22.8348 15.8636H16.7173C16.8184 14.6396 16.8636 13.3387 16.8636 12C16.8636 10.6613 16.8184 9.36043 16.7173 8.13636H22.8348C23.2655 9.34391 23.5 10.6446 23.5 12ZM22.4239 16.8636C20.9442 20.0294 18.0648 22.4099 14.5821 23.209C15.1424 22.5281 15.5679 21.6227 15.8863 20.6037C16.2246 19.5214 16.4633 18.2534 16.6201 16.8636H22.4239ZM22.4239 7.13636H16.6201C16.4633 5.7466 16.2246 4.47863 15.8863 3.39632C15.5679 2.37729 15.1424 1.47195 14.5821 0.791029C18.0648 1.59007 20.9442 3.97062 22.4239 7.13636ZM9.06815 20.3054C8.76069 19.3216 8.53732 18.1569 8.38648 16.8636H15.6135C15.4627 18.1569 15.2393 19.3216 14.9319 20.3054C14.2611 22.4518 13.2787 23.5 12 23.5C10.7213 23.5 9.73889 22.4518 9.06815 20.3054ZM15.8636 12C15.8636 13.3551 15.8164 14.6553 15.7138 15.8636H8.2862C8.18358 14.6553 8.13636 13.3551 8.13636 12C8.13636 10.6449 8.18358 9.34469 8.2862 8.13636H15.7138C15.8164 9.34469 15.8636 10.6449 15.8636 12ZM15.6135 7.13636H8.38648C8.53732 5.84309 8.76069 4.67845 9.06815 3.69459C9.73889 1.54822 10.7213 0.5 12 0.5C13.2787 0.5 14.2611 1.54822 14.9319 3.69459C15.2393 4.67845 15.4627 5.84309 15.6135 7.13636ZM8.11367 3.39632C7.77545 4.47863 7.53674 5.7466 7.37994 7.13636H1.57613C3.05581 3.97062 5.93519 1.59007 9.41795 0.791029C8.85756 1.47195 8.43211 2.37729 8.11367 3.39632ZM7.28267 8.13636C7.18155 9.36043 7.13636 10.6613 7.13636 12C7.13636 13.3387 7.18155 14.6396 7.28267 15.8636H1.16517C0.734509 14.6561 0.5 13.3554 0.5 12C0.5 10.6446 0.734509 9.34391 1.16517 8.13636H7.28267ZM9.41794 23.209C5.93519 22.4099 3.05581 20.0294 1.57613 16.8636H7.37994C7.53674 18.2534 7.77545 19.5214 8.11367 20.6037C8.43211 21.6227 8.85756 22.5281 9.41794 23.209Z" stroke="#415BD4"/>
</svg>
