<svg width="136" height="47" viewBox="0 0 136 47" fill="none" xmlns="http://www.w3.org/2000/svg">
<path d="M34.6719 15.2822H31.999V14.4619C31.999 14.0791 31.9648 13.8353 31.8965 13.7305C31.8281 13.6257 31.7142 13.5732 31.5547 13.5732C31.3815 13.5732 31.2493 13.6439 31.1582 13.7852C31.0716 13.9264 31.0283 14.1406 31.0283 14.4277C31.0283 14.7969 31.0785 15.0749 31.1787 15.2617C31.2744 15.4486 31.5456 15.6742 31.9922 15.9385C33.2728 16.6995 34.0794 17.3239 34.4121 17.8115C34.7448 18.2992 34.9111 19.0853 34.9111 20.1699C34.9111 20.9583 34.8177 21.5394 34.6309 21.9131C34.4486 22.2868 34.0931 22.6012 33.5645 22.8564C33.0358 23.1071 32.4206 23.2324 31.7188 23.2324C30.9486 23.2324 30.29 23.0866 29.7432 22.7949C29.2008 22.5033 28.8454 22.1318 28.6768 21.6807C28.5081 21.2295 28.4238 20.5892 28.4238 19.7598V19.0352H31.0967V20.3818C31.0967 20.7965 31.1331 21.0632 31.2061 21.1816C31.2835 21.3001 31.418 21.3594 31.6094 21.3594C31.8008 21.3594 31.9421 21.2842 32.0332 21.1338C32.1289 20.9834 32.1768 20.7601 32.1768 20.4639C32.1768 19.8122 32.0879 19.3861 31.9102 19.1855C31.7279 18.985 31.279 18.6501 30.5635 18.1807C29.848 17.7067 29.374 17.3626 29.1416 17.1484C28.9092 16.9342 28.7155 16.638 28.5605 16.2598C28.4102 15.8815 28.335 15.3984 28.335 14.8105C28.335 13.9629 28.4421 13.3431 28.6562 12.9512C28.875 12.5592 29.2259 12.2539 29.709 12.0352C30.1921 11.8118 30.7754 11.7002 31.459 11.7002C32.2064 11.7002 32.8421 11.821 33.3662 12.0625C33.8949 12.304 34.2435 12.6094 34.4121 12.9785C34.5853 13.3431 34.6719 13.9652 34.6719 14.8447V15.2822ZM38.5479 13.9287L38.5 14.7285C38.7461 14.4049 39.0173 14.1634 39.3135 14.0039C39.6097 13.8444 39.9333 13.7646 40.2842 13.7646C40.7126 13.7646 41.0817 13.8809 41.3916 14.1133C41.7061 14.3411 41.902 14.6055 41.9795 14.9062C42.057 15.207 42.0957 15.7174 42.0957 16.4375V20.2588C42.0957 21.0837 42.0456 21.6715 41.9453 22.0225C41.8496 22.3688 41.6491 22.6468 41.3438 22.8564C41.043 23.0615 40.6784 23.1641 40.25 23.1641C39.9082 23.1641 39.5915 23.0843 39.2998 22.9248C39.0081 22.7653 38.7415 22.5283 38.5 22.2139V24.292H35.7383V13.9287H38.5479ZM39.334 16.5674C39.334 16.0068 39.3135 15.6673 39.2725 15.5488C39.2314 15.4303 39.1175 15.3711 38.9307 15.3711C38.7484 15.3711 38.6299 15.4395 38.5752 15.5762C38.5251 15.7129 38.5 16.0433 38.5 16.5674V20.3271C38.5 20.874 38.5273 21.2158 38.582 21.3525C38.6367 21.4893 38.7552 21.5576 38.9375 21.5576C39.1152 21.5576 39.2246 21.4961 39.2656 21.373C39.3112 21.2454 39.334 20.9401 39.334 20.457V16.5674ZM49.2666 18.625H45.6914V20.5869C45.6914 20.9971 45.721 21.2614 45.7803 21.3799C45.8395 21.4984 45.9535 21.5576 46.1221 21.5576C46.3317 21.5576 46.4707 21.4801 46.5391 21.3252C46.612 21.1657 46.6484 20.8604 46.6484 20.4092V19.2129H49.2666V19.8828C49.2666 20.4434 49.2301 20.874 49.1572 21.1748C49.0889 21.4756 48.9248 21.7969 48.665 22.1387C48.4053 22.4805 48.0749 22.738 47.6738 22.9111C47.2773 23.0798 46.7783 23.1641 46.1768 23.1641C45.5934 23.1641 45.0785 23.0798 44.6318 22.9111C44.1852 22.7425 43.8366 22.5124 43.5859 22.2207C43.3398 21.9245 43.1689 21.6009 43.0732 21.25C42.9775 20.8945 42.9297 20.3796 42.9297 19.7051V17.0596C42.9297 16.2666 43.0368 15.6423 43.251 15.1865C43.4652 14.7262 43.8161 14.3753 44.3037 14.1338C44.7913 13.8877 45.3519 13.7646 45.9854 13.7646C46.7601 13.7646 47.3981 13.9128 47.8994 14.209C48.4053 14.5007 48.7585 14.8903 48.959 15.3779C49.1641 15.861 49.2666 16.5423 49.2666 17.4219V18.625ZM46.498 17.1484V16.4854C46.498 16.016 46.473 15.7129 46.4229 15.5762C46.3727 15.4395 46.2702 15.3711 46.1152 15.3711C45.9238 15.3711 45.8053 15.4303 45.7598 15.5488C45.7142 15.6628 45.6914 15.9749 45.6914 16.4854V17.1484H46.498ZM52.6436 17.4424H50.0527V16.834C50.0527 16.1322 50.1325 15.5921 50.292 15.2139C50.4561 14.8311 50.7819 14.4938 51.2695 14.2021C51.7572 13.9105 52.3906 13.7646 53.1699 13.7646C54.1042 13.7646 54.8083 13.931 55.2822 14.2637C55.7562 14.5918 56.041 14.9974 56.1367 15.4805C56.2324 15.959 56.2803 16.9479 56.2803 18.4473V23H53.5938V22.1934C53.4251 22.5169 53.2064 22.7607 52.9375 22.9248C52.6732 23.0843 52.3564 23.1641 51.9873 23.1641C51.5042 23.1641 51.0599 23.0296 50.6543 22.7607C50.2533 22.4873 50.0527 21.8926 50.0527 20.9766V20.2314C50.0527 19.5524 50.1598 19.0898 50.374 18.8438C50.5882 18.5977 51.1191 18.3105 51.9668 17.9824C52.8737 17.627 53.359 17.3877 53.4229 17.2646C53.4867 17.1416 53.5186 16.891 53.5186 16.5127C53.5186 16.0387 53.4821 15.7311 53.4092 15.5898C53.3408 15.444 53.2246 15.3711 53.0605 15.3711C52.8737 15.3711 52.7575 15.4326 52.7119 15.5557C52.6663 15.6742 52.6436 15.9863 52.6436 16.4922V17.4424ZM53.5186 18.6865C53.0765 19.0101 52.819 19.2812 52.7461 19.5C52.6777 19.7188 52.6436 20.0332 52.6436 20.4434C52.6436 20.9128 52.6732 21.2158 52.7324 21.3525C52.7962 21.4893 52.9193 21.5576 53.1016 21.5576C53.2747 21.5576 53.3864 21.5052 53.4365 21.4004C53.4912 21.291 53.5186 21.0085 53.5186 20.5527V18.6865ZM63.1777 13.9287L62.0566 17.5449L63.5127 23H60.8535L59.9922 19.0488V23H57.2305V11.9326H59.9922V16.5811L60.8535 13.9287H63.1777ZM66.4863 11.9326H69.3848C70.1686 11.9326 70.7702 11.9941 71.1895 12.1172C71.6133 12.2402 71.93 12.418 72.1396 12.6504C72.3538 12.8828 72.4974 13.1654 72.5703 13.498C72.6478 13.8262 72.6865 14.3366 72.6865 15.0293V15.9932C72.6865 16.6995 72.6136 17.2145 72.4678 17.5381C72.3219 17.8617 72.0531 18.11 71.6611 18.2832C71.2738 18.4564 70.7656 18.543 70.1367 18.543H69.3643V23H66.4863V11.9326ZM69.3643 13.8262V16.6426C69.4463 16.6471 69.5169 16.6494 69.5762 16.6494C69.8405 16.6494 70.0228 16.5856 70.123 16.458C70.2279 16.3258 70.2803 16.0547 70.2803 15.6445V14.7354C70.2803 14.3571 70.221 14.111 70.1025 13.9971C69.984 13.8831 69.738 13.8262 69.3643 13.8262ZM75.8994 17.4424H73.3086V16.834C73.3086 16.1322 73.3883 15.5921 73.5479 15.2139C73.7119 14.8311 74.0378 14.4938 74.5254 14.2021C75.013 13.9105 75.6465 13.7646 76.4258 13.7646C77.36 13.7646 78.0641 13.931 78.5381 14.2637C79.012 14.5918 79.2969 14.9974 79.3926 15.4805C79.4883 15.959 79.5361 16.9479 79.5361 18.4473V23H76.8496V22.1934C76.681 22.5169 76.4622 22.7607 76.1934 22.9248C75.929 23.0843 75.6123 23.1641 75.2432 23.1641C74.7601 23.1641 74.3158 23.0296 73.9102 22.7607C73.5091 22.4873 73.3086 21.8926 73.3086 20.9766V20.2314C73.3086 19.5524 73.4157 19.0898 73.6299 18.8438C73.8441 18.5977 74.375 18.3105 75.2227 17.9824C76.1296 17.627 76.6149 17.3877 76.6787 17.2646C76.7425 17.1416 76.7744 16.891 76.7744 16.5127C76.7744 16.0387 76.738 15.7311 76.665 15.5898C76.5967 15.444 76.4805 15.3711 76.3164 15.3711C76.1296 15.3711 76.0133 15.4326 75.9678 15.5557C75.9222 15.6742 75.8994 15.9863 75.8994 16.4922V17.4424ZM76.7744 18.6865C76.3324 19.0101 76.0749 19.2812 76.002 19.5C75.9336 19.7188 75.8994 20.0332 75.8994 20.4434C75.8994 20.9128 75.929 21.2158 75.9883 21.3525C76.0521 21.4893 76.1751 21.5576 76.3574 21.5576C76.5306 21.5576 76.6423 21.5052 76.6924 21.4004C76.7471 21.291 76.7744 21.0085 76.7744 20.5527V18.6865ZM83.3301 11.9326V23H80.4863V11.9326H83.3301Z" fill="white"/>
<path d="M53.4286 4.27239C45.6875 4.27239 38.4524 4.85094 31.7232 6.00805C24.994 7.16515 19.6436 8.73392 15.6719 10.7144C11.7001 12.6948 9.71429 14.8199 9.71429 17.0896C9.71429 18.9142 11.0551 20.6721 13.7366 22.3633C16.4182 24.0544 20.1875 25.5231 25.0446 26.7692L32.4062 28.6384L29.75 31.4421C31.4702 30.9971 33.0387 30.5632 34.4554 30.1404L37.7946 29.1057L41.817 29.4394C45.7634 29.751 49.6339 29.9067 53.4286 29.9067C61.1696 29.9067 68.4048 29.3282 75.1339 28.1711C81.8631 27.014 87.2135 25.4452 91.1853 23.4648C95.157 21.4843 97.1429 19.3593 97.1429 17.0896C97.1429 14.8199 95.157 12.6948 91.1853 10.7144C87.2135 8.73392 81.8631 7.16515 75.1339 6.00805C68.4048 4.85094 61.1696 4.27239 53.4286 4.27239ZM53.4286 0C63.0923 0 72.035 0.762132 80.2567 2.2864C88.4784 3.81066 94.9673 5.88566 99.7232 8.5114C104.479 11.1371 106.857 13.9965 106.857 17.0896C106.857 20.1826 104.479 23.042 99.7232 25.6677C94.9673 28.2935 88.4784 30.3685 80.2567 31.8927C72.035 33.417 63.0923 34.1791 53.4286 34.1791C49.0774 34.1791 44.625 34.0011 40.0714 33.6451C33.7976 35.6033 26.7649 37.0274 18.9732 37.9175C17.1518 38.1177 14.9762 38.2957 12.4464 38.4515H12.2188C11.6622 38.4515 11.1436 38.3625 10.6629 38.1845C10.1823 38.0065 9.89137 37.7728 9.79018 37.4836C9.73958 37.4168 9.71429 37.3445 9.71429 37.2666C9.71429 37.1887 9.72693 37.1164 9.75223 37.0496C9.77753 36.9829 9.82812 36.9161 9.90402 36.8494L10.0938 36.6825L10.3594 36.4989L10.6629 36.332L11.0045 36.1651L11.308 36.0149C11.561 35.8814 12.1429 35.6033 13.0536 35.1805C13.9643 34.7577 14.622 34.4295 15.0268 34.1958C15.4315 33.9622 16.0007 33.6395 16.7344 33.2278C17.468 32.8162 18.1004 32.3878 18.6317 31.9428C19.1629 31.4978 19.6815 31.0082 20.1875 30.4742C13.9137 28.872 8.98065 26.9027 5.38839 24.5662C1.79613 22.2298 0 19.7376 0 17.0896C0 13.9965 2.37798 11.1371 7.13393 8.5114C11.8899 5.88566 18.3787 3.81066 26.6004 2.2864C34.8222 0.762132 43.7649 0 53.4286 0ZM115.812 39.0189C116.318 39.553 116.837 40.0425 117.368 40.4876C117.9 40.9326 118.532 41.361 119.266 41.7726C119.999 42.1843 120.568 42.5069 120.973 42.7406C121.378 42.9742 122.036 43.3025 122.946 43.7252C123.857 44.148 124.439 44.4262 124.692 44.5597C124.743 44.5819 124.844 44.632 124.996 44.7099C125.147 44.7878 125.261 44.8434 125.337 44.8768C125.413 44.9102 125.514 44.9658 125.641 45.0437C125.767 45.1216 125.856 45.1828 125.906 45.2273L126.096 45.3941L126.248 45.5944L126.286 45.8114L126.21 46.0283C126.058 46.3399 125.729 46.5846 125.223 46.7626C124.717 46.9407 124.161 47.0185 123.554 46.9963C121.024 46.8405 118.848 46.6625 117.027 46.4622C109.235 45.5722 102.202 44.148 95.9286 42.1899C91.375 42.5459 86.9226 42.7239 82.5714 42.7239C68.8601 42.7239 56.9196 41.2553 46.75 38.318C49.6845 38.407 51.9107 38.4515 53.4286 38.4515C61.5744 38.4515 69.3914 37.9508 76.8795 36.9495C84.3676 35.9482 91.0461 34.5129 96.9152 32.6437C103.24 30.5965 108.097 28.2378 111.487 25.5676C114.876 22.8973 116.571 20.0713 116.571 17.0896C116.571 15.3762 115.99 13.685 114.826 12.0161C121.353 13.596 126.513 15.5764 130.308 17.9574C134.103 20.3384 136 22.8973 136 25.6343C136 28.3046 134.204 30.8024 130.612 33.1277C127.019 35.4531 122.086 37.4168 115.812 39.0189Z" fill="white"/>
</svg>
