<svg width="40" height="40" viewBox="0 0 40 40" fill="none" xmlns="http://www.w3.org/2000/svg">
<path d="M39.4718 25.0843L36.3829 22.5842C36.5291 21.7359 36.6046 20.8698 36.6046 20.0036C36.6046 19.1375 36.5291 18.2714 36.3829 17.4231L39.4718 14.9229C39.7048 14.7341 39.8716 14.4826 39.9499 14.2019C40.0282 13.9212 40.0145 13.6245 39.9104 13.3514L39.868 13.2353C39.0176 10.9853 37.7442 8.89944 36.1094 7.07862L36.0245 6.98486C35.8262 6.76409 35.5619 6.6054 35.2664 6.52968C34.9709 6.45397 34.6581 6.46479 34.3692 6.56072L30.5352 7.85099C29.1205 6.7527 27.5407 5.88657 25.8335 5.27938L25.0931 1.48448C25.0373 1.19893 24.891 0.936237 24.6736 0.731291C24.4563 0.526345 24.1783 0.388852 23.8764 0.337077L23.7491 0.314754C21.2922 -0.104918 18.7079 -0.104918 16.2509 0.314754L16.1236 0.337077C15.8217 0.388852 15.5437 0.526345 15.3264 0.731291C15.109 0.936237 14.9627 1.19893 14.9069 1.48448L14.1618 5.29724C12.4682 5.90455 10.8911 6.77023 9.49305 7.85992L5.63075 6.56072C5.34198 6.46403 5.02897 6.45282 4.7333 6.52858C4.43764 6.60434 4.17332 6.76348 3.97549 6.98486L3.8906 7.07862C2.25771 8.90073 0.984569 10.9862 0.132054 13.2353L0.089611 13.3514C-0.122603 13.9094 0.0518841 14.5345 0.528187 14.9229L3.65481 17.4499C3.50861 18.2892 3.43788 19.1464 3.43788 19.9992C3.43788 20.8564 3.50861 21.7136 3.65481 22.5484L0.528187 25.0754C0.295203 25.2642 0.128453 25.5157 0.0501108 25.7964C-0.0282314 26.0772 -0.0144541 26.3738 0.089611 26.6469L0.132054 26.763C0.985626 29.0132 2.24948 31.0892 3.8906 32.9197L3.97549 33.0135C4.17381 33.2342 4.43813 33.3929 4.73362 33.4686C5.02911 33.5443 5.34189 33.5335 5.63075 33.4376L9.49305 32.1384C10.8984 33.2322 12.4688 34.0984 14.1618 34.7011L14.9069 38.5138C14.9627 38.7994 15.109 39.0621 15.3264 39.267C15.5437 39.472 15.8217 39.6095 16.1236 39.6612L16.2509 39.6836C18.7304 40.1055 21.2696 40.1055 23.7491 39.6836L23.8764 39.6612C24.1783 39.6095 24.4563 39.472 24.6736 39.267C24.891 39.0621 25.0373 38.7994 25.0931 38.5138L25.8335 34.7189C27.54 34.1133 29.1287 33.2444 30.5352 32.1473L34.3692 33.4376C34.658 33.5343 34.971 33.5455 35.2667 33.4697C35.5624 33.394 35.8267 33.2348 36.0245 33.0135L36.1094 32.9197C37.7505 31.0847 39.0144 29.0132 39.868 26.763L39.9104 26.6469C40.1226 26.0978 39.9481 25.4728 39.4718 25.0843ZM33.0347 17.9499C33.1526 18.6241 33.2139 19.3161 33.2139 20.0081C33.2139 20.7001 33.1526 21.3921 33.0347 22.0663L32.7234 23.8566L36.2462 26.7094C35.7121 27.8742 35.038 28.9768 34.2372 29.9954L29.8609 28.5265L28.3801 29.6784C27.253 30.5535 25.9986 31.241 24.6404 31.7232L22.8437 32.3616L21.9995 36.6923C20.6676 36.8352 19.3229 36.8352 17.991 36.6923L17.1469 32.3527L15.3643 31.7053C14.0203 31.2232 12.7706 30.5356 11.6529 29.665L10.1721 28.5087L5.76752 29.9909C4.96582 28.9685 4.29616 27.8658 3.75856 26.705L7.31904 23.8253L7.0125 22.0395C6.89932 21.3743 6.83802 20.6867 6.83802 20.0081C6.83802 19.325 6.89461 18.6419 7.0125 17.9767L7.31904 16.1909L3.75856 13.3112C4.29145 12.1459 4.96582 11.0476 5.76752 10.0252L10.1721 11.5075L11.6529 10.3512C12.7706 9.48057 14.0203 8.79302 15.3643 8.31084L17.1516 7.67241L17.9958 3.33282C19.3209 3.18995 20.6744 3.18995 22.0042 3.33282L22.8484 7.66348L24.6451 8.30192C25.9986 8.78409 27.2577 9.47164 28.3848 10.3467L29.8656 11.4986L34.2419 10.0297C35.0436 11.0521 35.7133 12.1549 36.2509 13.3157L32.7281 16.1685L33.0347 17.9499ZM20.0047 11.7039C15.4209 11.7039 11.7048 15.222 11.7048 19.5616C11.7048 23.9012 15.4209 27.4193 20.0047 27.4193C24.5885 27.4193 28.3046 23.9012 28.3046 19.5616C28.3046 15.222 24.5885 11.7039 20.0047 11.7039ZM23.7397 23.0976C23.2498 23.5627 22.6676 23.9315 22.0266 24.1828C21.3857 24.4341 20.6985 24.563 20.0047 24.562C18.5947 24.562 17.2695 24.0396 16.2698 23.0976C15.7785 22.6338 15.3889 22.0827 15.1234 21.4758C14.858 20.869 14.7219 20.2184 14.7229 19.5616C14.7229 18.2267 15.2747 16.9722 16.2698 16.0257C17.2695 15.0792 18.5947 14.5613 20.0047 14.5613C21.4148 14.5613 22.7399 15.0792 23.7397 16.0257C24.231 16.4894 24.6205 17.0406 24.886 17.6474C25.1515 18.2543 25.2876 18.9048 25.2865 19.5616C25.2865 20.8965 24.7347 22.1511 23.7397 23.0976Z" fill="white"/>
</svg>
