<svg width="50" height="50" viewBox="0 0 50 50" fill="none" xmlns="http://www.w3.org/2000/svg">
<g clip-path="url(#clip0_448_855)">
<path d="M25 50C38.8071 50 50 38.8071 50 25C50 11.1929 38.8071 0 25 0C11.1929 0 0 11.1929 0 25C0 38.8071 11.1929 50 25 50Z" fill="white"/>
<path d="M11.8184 38.1809L13.7284 31.4045C12.5001 29.3201 11.8534 26.9486 11.8534 24.5123C11.8534 17.011 17.9628 10.9082 25.4723 10.9082C32.9818 10.9082 39.0911 17.011 39.0911 24.5123C39.0911 32.0136 32.9818 38.1164 25.4723 38.1164C23.1324 38.1164 20.8412 37.5181 18.8143 36.382L11.8184 38.1809ZM19.1719 33.9071L19.5888 34.1613C21.356 35.239 23.3905 35.8087 25.4723 35.8087C31.7079 35.8087 36.7809 30.7411 36.7809 24.5123C36.7809 18.2835 31.7079 13.2159 25.4723 13.2159C19.2367 13.2159 14.1637 18.2835 14.1637 24.5123C14.1637 26.6827 14.7812 28.7903 15.9493 30.6073L16.23 31.044L15.1301 34.9464L19.1719 33.9071Z" fill="#415BD4"/>
<path d="M21.6467 18.1806L20.763 18.1325C20.4855 18.1173 20.2132 18.21 20.0034 18.392C19.575 18.7637 18.89 19.4821 18.6796 20.4184C18.3658 21.8144 18.8507 23.5238 20.1057 25.2332C21.3606 26.9426 23.6993 29.6777 27.8349 30.8458C29.1675 31.2222 30.2158 30.9684 31.0247 30.4516C31.6653 30.0423 32.1069 29.3853 32.266 28.6425L32.4071 27.9842C32.452 27.775 32.3456 27.5627 32.151 27.4731L29.1644 26.098C28.9705 26.0087 28.7406 26.0652 28.6102 26.234L27.4378 27.7523C27.3492 27.867 27.1976 27.9124 27.0607 27.8644C26.2578 27.5825 23.5682 26.4573 22.0924 23.6176C22.0284 23.4945 22.0443 23.345 22.1351 23.2399L23.2556 21.945C23.3701 21.8128 23.399 21.6269 23.3302 21.4662L22.0428 18.4576C21.9743 18.2974 21.8207 18.1901 21.6467 18.1806Z" fill="#415BD4"/>
</g>
<defs>
<clipPath id="clip0_448_855">
<rect width="50" height="50" fill="white"/>
</clipPath>
</defs>
</svg>
